<?xml version="1.0" encoding="UTF-8" standalone="no"?>
<!-- Created with Inkscape (http://www.inkscape.org/) -->

<svg
   version="1.1"
   id="svg1"
   width="1760"
   height="2388"
   viewBox="0 0 1760 2388"
   sodipodi:docname="Less Logo first draft.jpg"
   xmlns:inkscape="http://www.inkscape.org/namespaces/inkscape"
   xmlns:sodipodi="http://sodipodi.sourceforge.net/DTD/sodipodi-0.dtd"
   xmlns="http://www.w3.org/2000/svg"
   xmlns:svg="http://www.w3.org/2000/svg">
  <defs
     id="defs1" />
  <sodipodi:namedview
     id="namedview1"
     pagecolor="#ffffff"
     bordercolor="#000000"
     borderopacity="0.25"
     inkscape:showpageshadow="2"
     inkscape:pageopacity="0.0"
     inkscape:pagecheckerboard="0"
     inkscape:deskcolor="#d1d1d1">
    <inkscape:page
       x="0"
       y="0"
       width="1760"
       height="2388"
       id="page2"
       margin="0"
       bleed="0" />
  </sodipodi:namedview>
  <g
     inkscape:groupmode="layer"
     inkscape:label="Image"
     id="g1">
    <path
       id="path1"
       style="fill:#000000"
       d="m 890.60733,367.68818 c -42.9437,-1.65275 -83.1796,2.73312 -125.47652,13.43359 -46.65735,11.8036 -105.07302,39.07564 -145.16992,67.77344 -82.4323,58.9977 -171.22117,160.84595 -239.60547,274.84765 -43.2514,72.1032 -66.75419,135.4473 -76.61719,206.5 -6.4633,46.5612 -5.27134,94.60884 3.44336,138.76374 10.4084,52.736 33.31283,106.2408 66.23633,154.7363 33.9288,49.9764 77.65289,97.5594 128.55469,139.8984 34.7199,28.8791 91.8946,68.524 138.1582,95.7969 20.4424,12.051 59.2251,32.0118 76,39.1172 36.88916,15.6252 74.88582,27.199 107.00002,32.5898 12.735,2.1378 36.0214,4.8726 46,5.4024 46.1671,2.451 93.6888,-2.5774 131.32217,-13.8946 63.7909,-19.1834 118.1184,-50.2487 176.1778,-100.7421 14.4661,-12.581 50.3622,-48.5051 63.6191,-63.668 41.6311,-47.6162 81.4739,-106.7384 122.8106,-182.2422 33.1219,-60.4991 59.932,-126.8939 74.4043,-184.25784 19.5159,-77.3553 23.0238,-146.4082 10.5918,-208.5 -9.7889,-48.8909 -23.1584,-84.1858 -48.6719,-128.5 -28.4918,-49.4872 -82.1836,-105.60253 -139.6582,-145.96093 -110.6311,-77.6846 -221.3644,-124.4976 -325.09567,-137.4375 -15.0927,-1.88275 -29.7089,-3.10534 -44.0235,-3.65625 z m -14.5351,339.7539 c 4.1897,-0.0758 8.3431,0.1556 14.5586,0.6543 30.4565,2.4438 53.9705,10.63675 80,27.87695 13.6068,9.0122 33.15307,27.91323 42.67767,41.26953 16.4849,23.1168 26.559,47.9055 30.3789,74.75 1.8146,12.753 0.6907,46.3092 -1.9511,58.25 -7.414,33.5114 -22.7855,62.1738 -58.18947,108.50004 -24.3671,31.8844 -39.154,56.1164 -47.2891,77.5 -1.9878,5.225 -6.5748,18.05 -10.1933,28.5 -3.6186,10.45 -8.3696,22.3424 -10.5586,26.4258 -12.2302,22.8142 -33.2333,39.1297 -57.9746,45.039 -24.9138,5.9505 -49.2096,1.7391 -70.5762,-12.2343 -16.5859,-10.847 -28.11195,-26.6294 -34.70117,-47.5176 -3.99217,-12.6555 -4.33375,-17.9346 -1.43555,-22.211 4.57725,-6.7539 15.31366,-7.2914 19.97461,-1 1.01866,1.375 2.98267,6.7275 4.36523,11.8965 3.32678,12.438 7.51098,20.0472 15.88478,28.8828 5.5701,5.8773 8.6815,8.1727 16.0215,11.8165 21.9939,10.9184 45.1387,9.1606 64.8789,-4.9258 15.0259,-10.7222 21.4846,-21.5881 34.5722,-58.17 9.4696,-26.4692 14.8629,-38.8026 23.2344,-53.125 6.1976,-10.6032 24.759,-37.1691 39.7364,-56.87498 21.0907,-27.7493 27.2329,-37.13506 35.06437,-53.56836 10.655,-22.358 14.1723,-37.78134 14.2363,-62.43164 0.049,-18.9721 -1.7657,-31.59369 -6.6367,-46.15039 -16.35187,-48.8669 -58.96207,-85.81164 -109.55857,-94.99414 -13.2098,-2.3977 -37.344,-2.3658 -49.9609,0.0664 -42.8102,8.2527 -79.42452,35.7041 -100.16213,75.0957 -8.67172,16.47211 -12.41831,27.81951 -15.75781,47.72071 -2.2006,13.1144 -3.6373,15.88498 -9.4707,18.26758 -9.0528,3.6977 -17.60938,-2.73133 -17.60938,-13.23243 0,-2.1582 0.88916,-8.84091 1.97656,-14.8496 6.2483,-34.52641 22.57422,-65.4724 48.31641,-91.5879 28.06725,-28.4743 59.97635,-43.72647 101.37495,-48.45507 6.3578,-0.7262 10.5838,-1.1078 14.7735,-1.1836 z m 3.4726,74.01172 c 7.529,0.1307 14.8856,0.91732 20.086,2.32422 40.9828,11.0874 70.6512,47.00378 72.707,88.01758 1.1588,23.1182 -6.5578,43.91263 -25.5078,68.73633 -6.7875,8.8912 -27.3311,29.71093 -29.3164,29.71093 -0.4507,0 2.6534,-4.47712 6.8984,-9.94921 13.3481,-17.2071 21.9701,-34.72936 25.9864,-52.81446 2.5515,-11.4893 2.2587,-33.15913 -0.5918,-43.73633 -5.0858,-18.8722 -15.8358,-34.44504 -30.586,-44.31054 -14.8486,-9.9313 -28.7735,-13.87855 -45.5254,-12.90235 -18.2994,1.0665 -32.9501,7.56162 -45.5644,20.19922 -14.2516,14.2779 -20.4669,28.61171 -21.2774,49.07031 -0.839,21.1759 3.1417,28.75789 18.1055,34.48829 23.5784,9.0295 35.4755,19.00687 44.0625,36.95507 2.9227,6.1088 3.1094,7.1921 3.1094,18 0,10.4637 -0.2482,12.03058 -2.7578,17.38868 -1.517,3.2388 -4.9488,8.8638 -7.625,12.5 -7.2488,9.84916 -8.0423,11.97546 -9.6602,25.86916 -2.1856,18.7695 -6.6745,26.2966 -19.3398,32.4277 -4.892,2.3682 -18.3672,3.4976 -23.1172,1.9375 -8.2073,-2.6955 -16.6936,-9.7632 -20.4531,-17.0332 -2.7126,-5.2457 -3.7755,-13.3951 -2.5879,-19.8398 1.7322,-9.3994 5.2021,-15.1004 15.1093,-24.82621 10.6766,-10.4811 12.9317,-14.27076 12.9317,-21.72656 0,-9.3662 -4.6931,-20.32951 -15.4375,-36.06641 -8.1831,-11.9854 -11.8759,-19.34258 -15.2266,-30.33398 -2.4129,-7.9153 -2.6871,-10.39998 -2.7441,-24.79688 -0.057,-14.5068 0.1956,-16.9333 2.7011,-26 3.4382,-12.441 10.9005,-27.811 17.9649,-37 13.0782,-17.0116 34.4573,-30.12328 56.541,-34.67968 5.8861,-1.2145 13.5863,-1.74008 21.1152,-1.60938 z m -550.91402,819.7891 -0.1289,53.25 c -0.071,29.2875 -0.0606,74.175 0.0254,99.75 0.0861,25.575 0.14585,109.6021 0.13085,186.7266 l -0.0273,140.2265 17.25,0.2735 v 0 c 9.4875,0.1505 61.9127,0.2734 116.5,0.2734 h 99.25 v -10.7324 -10.7324 h -104.75 -104.75 l -0.25195,-229.5196 -0.25195,-229.5195 h -11.49805 z m 402.79102,141.0723 c -5.10582,0.072 -10.22152,0.4131 -15.29102,1.0312 -36.8514,4.4931 -68.85828,24.1992 -89.55078,55.1348 -20.338,30.4057 -30.19345,67.8779 -30.31445,115.2617 -0.0796,31.2109 3.28055,54.2371 11.53125,79 7.6046,22.8237 19.39563,42.7971 34.11132,57.7851 20.45061,20.8292 44.36999,32.9392 74.45899,37.6954 8.8116,1.3929 41.42619,0.422 50.26367,-1.4961 9.76685,-2.1198 23.60832,-6.7449 30.23632,-10.1035 20.709,-10.4939 41.7132,-31.5378 52.2481,-52.3458 2.8263,-5.5825 7.5156,-17.3951 7.5156,-18.9335 0,-0.4695 -4.346,-1.4017 -9.6582,-2.0704 -5.3123,-0.6687 -10.2464,-1.441 -10.9649,-1.7168 -0.8601,-0.33 -2.6384,2.3804 -5.2031,7.9317 -13.4759,29.1685 -35.9633,48.4703 -65.74608,56.4336 -8.95199,2.3936 -11.64909,2.6543 -27.42774,2.6543 -15.6859,0 -18.50538,-0.2688 -27.20508,-2.5977 -11.3921,-3.0496 -24.04802,-8.7653 -33.61132,-15.1816 -7.72181,-5.1807 -20.93596,-18.0926 -27.68946,-27.0547 -10.2806,-13.6429 -20.23284,-38.3004 -24.96484,-61.8535 -2.2,-10.9497 -4.49253,-30.933 -4.51953,-39.3965 l -0.01,-3.25 H 741.26925 862.9079 l -0.5781,-19.25 c -0.6115,-20.3635 -2.1883,-32.8004 -6.2676,-49.4258 -13.2846,-54.1424 -40.4486,-88.4973 -80.43162,-101.7265 -13.65923,-4.5195 -28.89154,-6.7405 -44.20898,-6.5254 z m 306.67577,0.01 c -33.4245,-0.7383 -65.30817,9.7201 -84.71097,29.1035 -17.1961,17.1791 -24.666,37.3754 -23.4218,63.3184 0.6344,13.2268 2.4003,21.0598 6.705,29.7363 11.1956,22.5659 29.2774,34.8737 70.96097,48.2988 61.9388,19.9489 66.9441,21.6919 77.5,26.9864 18.8107,9.4349 27.6008,18.3356 34.2676,34.7012 3.4465,8.4602 4.3644,28.594 1.8242,40.0117 -5.4578,24.5315 -22.8722,41.7729 -50.6172,50.1133 -34.4267,10.349 -78.21137,3.4468 -102.55667,-16.1661 -11.4738,-9.2436 -22.1127,-25.3477 -27.373,-41.4316 -2.518,-7.699 -1.5268,-7.3723 -15.0449,-4.9316 -9.3748,1.6926 -9.4955,1.7501 -9.2149,4.4257 0.4759,4.539 5.1033,17.6943 8.8575,25.1817 9.4814,18.9098 25.1666,34.4067 44.8574,44.3164 11.3198,5.6968 30.46547,10.8397 46.99997,12.625 v 0 c 2.2,0.2377 12.325,0.2811 22.5,0.096 20.6392,-0.376 30.9294,-2.0615 47.2168,-7.7363 30.7972,-10.7301 51.7841,-33.5197 58.4082,-63.4219 2.3039,-10.3992 2.3241,-32.9085 0.039,-43.2676 -1.8725,-8.4889 -7.1626,-20.2849 -11.8378,-26.3945 -14.779,-19.3138 -32.7754,-29.3787 -77.8262,-43.5312 -38.9735,-12.2433 -46.3946,-14.6938 -55.4434,-18.293 -13.41917,-5.3377 -22.79157,-10.9601 -30.40617,-18.2422 -10.6309,-10.1667 -14.9517,-19.8791 -15.8223,-35.5742 -1.0382,-18.7159 4.5961,-34.174 16.9297,-46.4492 16.3575,-16.28 35.77987,-23.086 65.24217,-22.8614 31.9995,0.2439 52.5095,9.349 66.9394,29.7168 5.551,7.8352 8.3579,13.4061 11.1348,22.0938 2.5665,8.0295 1.2941,7.6687 16.5762,4.6875 l 8.6484,-1.6875 -2.4492,-8.4512 c -5.0926,-17.5636 -14.9931,-33.4415 -27.1602,-43.5605 -8.6696,-7.2103 -25.9459,-15.7407 -38.1894,-18.8555 -11.0785,-2.8184 -22.3917,-4.3086 -33.5332,-4.5547 z m 277.9804,0.1914 c -29.9271,1.0246 -55.9247,10.3167 -73.4843,26.5 -13.0961,12.0696 -22.1773,28.958 -24.9903,46.4707 -3.0248,18.8316 0.4171,40.6777 8.5489,54.2598 4.3987,7.3469 13.9825,17.3098 21.8476,22.709 11.6835,8.0205 30.315,15.7675 59.6309,24.7969 57.6233,17.7482 75.1473,25.6222 87.7754,39.4394 9.9521,10.8891 14.2246,23.3701 14.2246,41.5547 0,13.7789 -1.4627,20.3235 -7.1387,31.916 -12.0838,24.6792 -41.3353,39.0842 -79.3613,39.0742 -49.3862,-0.01 -82.5304,-21.7603 -95.9766,-62.9902 -0.9866,-3.025 -1.9006,-5.6301 -2.0332,-5.791 -0.2488,-0.302 -19.0591,2.6343 -21.1816,3.3066 -1.8424,0.5836 2.9765,17.2155 7.9199,27.334 7.4704,15.291 18.5129,28.1394 32.1484,37.4043 13.7778,9.3615 35.6347,17.1676 54.7891,19.5684 11.9018,1.4918 36.3354,1.3163 47.3242,-0.3399 31.1688,-4.6977 54.6021,-16.4877 69.0274,-34.7305 13.339,-16.869 18.601,-33.1362 18.582,-57.4453 -0.022,-28.1949 -9.2086,-48.3355 -28.875,-63.3027 -13.5005,-10.2746 -34.315,-18.8803 -82.2246,-33.998 -29.8595,-9.422 -37.9045,-12.3831 -47.8477,-17.6055 -23.6335,-12.4127 -34.1777,-28.0728 -34.1347,-50.7012 0.034,-18.2887 4.7713,-31.197 15.6992,-42.7812 12.2721,-13.009 27.611,-20.3189 49.2832,-23.4883 25.8472,-3.78 50.5084,1.0137 68.6738,13.3496 11.724,7.9616 22.3284,23.1405 27.4004,39.2207 1.0596,3.3593 2.2584,5.4255 3.0801,5.3066 7.375,-1.0666 20.3481,-3.4751 20.7187,-3.8457 0.8084,-0.8083 -1.7531,-10.3258 -4.8769,-18.1269 -5.8162,-14.5252 -18.0924,-30.2071 -29.9961,-38.3145 -16.9896,-11.5714 -36.806,-17.5884 -61.5,-18.6777 -4.4226,-0.1951 -8.7774,-0.2186 -13.0528,-0.072 z m -584.53117,19.8379 c 4.63657,-0.033 9.33706,0.2345 14.08398,0.8106 13.33816,1.6186 20.00864,3.5625 31.50002,9.1797 23.5142,11.4943 39.783,32.3406 50.8633,65.1777 5.5155,16.3454 10.6098,45.3227 10.6328,60.4746 v 2.25 H 729.68941 c -59.9176,0 -109.14002,-0.3375 -109.38282,-0.75 -0.7012,-1.1913 2.09123,-23.285 4.36133,-34.5098 4.4621,-22.0641 14.3681,-45.8875 25.125,-60.4277 19.9871,-27.0168 49.2979,-41.9751 81.75391,-42.2051 z" />
  </g>
</svg>
