<?xml version="1.0" encoding="UTF-8" standalone="no"?>
<!-- Created with Inkscape (http://www.inkscape.org/) -->

<svg
   version="1.1"
   id="svg1"
   width="1760"
   height="2388"
   viewBox="0 0 1760 2388"
   sodipodi:docname="Less Logo first draft.jpg"
   inkscape:export-filename="Less Logo Icon SVG.svg"
   inkscape:export-xdpi="96"
   inkscape:export-ydpi="96"
   xmlns:inkscape="http://www.inkscape.org/namespaces/inkscape"
   xmlns:sodipodi="http://sodipodi.sourceforge.net/DTD/sodipodi-0.dtd"
   xmlns="http://www.w3.org/2000/svg"
   xmlns:svg="http://www.w3.org/2000/svg">
  <defs
     id="defs1" />
  <sodipodi:namedview
     id="namedview1"
     pagecolor="#ffffff"
     bordercolor="#000000"
     borderopacity="0.25"
     inkscape:showpageshadow="2"
     inkscape:pageopacity="0.0"
     inkscape:pagecheckerboard="0"
     inkscape:deskcolor="#d1d1d1">
    <inkscape:page
       x="0"
       y="0"
       width="1760"
       height="2388"
       id="page2"
       margin="0"
       bleed="0" />
  </sodipodi:namedview>
  <g
     inkscape:groupmode="layer"
     inkscape:label="Image"
     id="g1">
    <path
       id="path1-8"
       style="fill:#000000"
       d="m 876.19727,414.39062 c -42.9437,-1.65269 -83.17957,2.7331 -125.47657,13.4336 -46.6573,11.8036 -105.07302,39.07564 -145.16992,67.77344 -82.4323,58.9977 -171.22117,160.84595 -239.60547,274.84765 -43.2514,72.1032 -66.75418,135.4473 -76.61719,206.5 -6.4633,46.56129 -5.27134,94.60879 3.44336,138.76369 10.4084,52.736 33.31283,106.2408 66.23633,154.7363 33.9288,49.9764 77.65289,97.5595 128.55469,139.8985 34.7199,28.8791 91.8946,68.5239 138.1582,95.7968 20.4424,12.051 59.2251,32.0118 76,39.1172 36.8892,15.6252 74.8858,27.1991 107,32.5899 12.735,2.1378 36.0214,4.8725 46,5.4023 46.1671,2.451 93.68897,-2.5773 131.32227,-13.8945 63.79093,-19.1834 118.11833,-50.2488 176.17773,-100.7422 14.4661,-12.581 50.3622,-48.5051 63.6191,-63.668 41.6311,-47.6162 81.4739,-106.7384 122.8106,-182.2422 33.1219,-60.4991 59.932,-126.8939 74.4043,-184.2578 19.5159,-77.35533 23.0238,-146.40819 10.5918,-208.49999 -9.7889,-48.8909 -23.1584,-84.1858 -48.6719,-128.5 -28.4918,-49.4872 -82.1836,-105.60253 -139.6582,-145.96093 -110.6311,-77.6846 -221.3645,-124.49761 -325.0957,-137.4375 -15.0927,-1.8828 -29.70883,-3.10536 -44.02343,-3.65626 z m -14.53516,339.75391 c 4.1897,-0.076 8.34309,0.1556 14.55859,0.6543 30.4565,2.4438 53.9705,10.63675 80,27.87695 13.6068,9.0122 33.15314,27.91323 42.67774,41.26953 16.48486,23.1168 26.55896,47.9055 30.37886,74.75 1.8146,12.753 0.6907,46.3092 -1.9511,58.25 -7.414,33.5114 -22.7856,62.17379 -58.18948,108.49999 -24.3671,31.8844 -39.15396,56.1164 -47.28906,77.5 -1.9878,5.225 -6.57486,18.05 -10.19336,28.5 -3.6186,10.45 -8.3696,22.3424 -10.5586,26.4258 -12.2302,22.8142 -33.23331,39.1298 -57.97461,45.0391 -24.9138,5.9505 -49.20957,1.739 -70.57617,-12.2344 -16.5859,-10.847 -28.11197,-26.6294 -34.70117,-47.5176 -3.9922,-12.6555 -4.33375,-17.9345 -1.43555,-22.2109 4.5773,-6.7539 15.31361,-7.2914 19.97461,-1 1.0186,1.375 2.98264,6.7274 4.36524,11.8965 3.3268,12.438 7.51096,20.0472 15.88476,28.8828 5.5701,5.8773 8.68149,8.1726 16.02149,11.8164 21.9939,10.9184 45.1387,9.1606 64.8789,-4.9258 15.0259,-10.7222 21.48467,-21.588 34.57227,-58.1699 9.4696,-26.4692 14.86287,-38.8026 23.23437,-53.125 6.1976,-10.6032 24.75893,-37.1691 39.73633,-56.875 21.0907,-27.7493 27.23305,-37.1351 35.06445,-53.56839 10.65498,-22.358 14.17238,-37.78134 14.23638,-62.43164 0.049,-18.9721 -1.7658,-31.59369 -6.63677,-46.15039 -16.3518,-48.8669 -58.96209,-85.81165 -109.55859,-94.99415 -13.2098,-2.3977 -37.34404,-2.36539 -49.96094,0.0664 -42.8102,8.2527 -79.42451,35.7041 -100.16211,75.0957 -8.6717,16.4721 -12.41831,27.81951 -15.75781,47.72071 -2.2006,13.1144 -3.6373,15.88498 -9.4707,18.26757 -9.0528,3.69771 -17.60938,-2.73132 -17.60938,-13.23242 0,-2.1582 0.88917,-8.84091 1.97657,-14.84961 6.2483,-34.5264 22.5742,-65.47239 48.3164,-91.58789 28.0673,-28.4743 59.9764,-43.72648 101.375,-48.45508 6.3578,-0.72619 10.58374,-1.10779 14.77344,-1.18359 z m 3.47266,74.01172 c 7.529,0.1307 14.88553,0.91732 20.08593,2.32422 40.9828,11.0874 70.65123,47.00378 72.70703,88.01758 1.1588,23.1182 -6.55781,43.91263 -25.50781,68.73633 -6.7875,8.8912 -27.3311,29.71092 -29.3164,29.71092 -0.009,0 -0.0193,0 -0.0254,-0.01 -0.2787,-0.2031 2.77833,-4.5976 6.92383,-9.9414 13.3481,-17.20715 21.97003,-34.72936 25.98633,-52.81446 2.5515,-11.4893 2.2587,-33.15913 -0.5918,-43.73633 -5.0858,-18.8722 -15.83573,-34.44504 -30.58593,-44.31054 -14.8486,-9.9313 -28.77349,-13.87855 -45.52539,-12.90235 -18.2994,1.0665 -32.95016,7.56162 -45.56446,20.19922 -14.2516,14.2779 -20.46684,28.61171 -21.27734,49.07031 -0.839,21.1759 3.14167,28.75788 18.10547,34.48828 23.5784,9.0295 35.4755,19.00688 44.0625,36.95508 2.9227,6.10889 3.10937,7.19209 3.10937,17.99999 0,10.4637 -0.24821,12.0306 -2.75781,17.3887 -1.517,3.2388 -4.9488,8.8638 -7.625,12.5 -7.2488,9.8491 -8.04226,11.9754 -9.66016,25.8691 -2.1856,18.7695 -6.67454,26.2967 -19.33984,32.4278 -4.892,2.3682 -18.36719,3.4976 -23.11719,1.9375 -8.2073,-2.6955 -16.69362,-9.7632 -20.45312,-17.0332 -2.7126,-5.2457 -3.77549,-13.3952 -2.58789,-19.8399 1.7322,-9.3994 5.20217,-15.1004 15.10937,-24.8262 10.6766,-10.4811 12.93164,-14.2707 12.93164,-21.7265 0,-9.3662 -4.6931,-20.32953 -15.4375,-36.06643 -8.1831,-11.9854 -11.87586,-19.34258 -15.22656,-30.33398 -2.4129,-7.9153 -2.68714,-10.39998 -2.74414,-24.79688 -0.057,-14.5068 0.19567,-16.9333 2.70117,-26 3.4382,-12.441 10.90045,-27.811 17.96485,-37 13.0782,-17.0116 34.45731,-30.12328 56.54101,-34.67969 5.8861,-1.2145 13.58634,-1.74007 21.11524,-1.60937 z" />
  </g>
</svg>
